<svg xmlns="http://www.w3.org/2000/svg" viewBox="0 0 100 100">
  <defs>
    <linearGradient id="brainGradient" x1="0%" y1="0%" x2="100%" y2="100%">
      <stop offset="0%" style="stop-color:#8B5CF6;stop-opacity:1" />
      <stop offset="100%" style="stop-color:#6366F1;stop-opacity:1" />
    </linearGradient>
  </defs>
  
  <!-- Brain shape -->
  <path d="M50 15 C30 15 20 25 20 40 C20 55 30 65 50 65 C70 65 80 55 80 40 C80 25 70 15 50 15 Z" 
        fill="url(#brainGradient)" stroke="#4C1D95" stroke-width="2"/>
  
  <!-- Brain folds -->
  <path d="M30 30 Q40 25 50 30 Q60 35 70 30" stroke="#4C1D95" stroke-width="1.5" fill="none"/>
  <path d="M30 40 Q40 35 50 40 Q60 45 70 40" stroke="#4C1D95" stroke-width="1.5" fill="none"/>
  <path d="M30 50 Q40 45 50 50 Q60 55 70 50" stroke="#4C1D95" stroke-width="1.5" fill="none"/>
  
  <!-- Eyes -->
  <circle cx="35" cy="35" r="3" fill="#4C1D95"/>
  <circle cx="65" cy="35" r="3" fill="#4C1D95"/>
  
  <!-- Sparkle effect -->
  <circle cx="25" cy="25" r="1" fill="#FCD34D"/>
  <circle cx="75" cy="25" r="1" fill="#FCD34D"/>
  <circle cx="50" cy="20" r="1" fill="#FCD34D"/>
</svg>
